<svg width="84" height="88" viewBox="0 0 84 88" fill="none" xmlns="http://www.w3.org/2000/svg">
<path d="M57.629 72H57.0001V67.1719L51.8282 62H41.8282L33.5079 53.6797L29.1563 52.2578L18.0003 54H0.000289917V74H17.1723L31.1723 88H56.4103L80.0003 77.32V70.5583L73.0003 65.5583L57.629 72ZM76 74.6797L55.59 84H32.828L18.828 70H4V58H18.129L28.828 56.3594L31.3592 57.1875L40.1717 66H50.1717L52.9998 68.8281V72H38.8278L33.4176 66.5898L30.5895 69.4179L37.1715 75.9999H58.3705L72.3705 70.0702L75.9994 72.6288L76 74.6797Z" fill="#E200B1"/>
<path d="M41.141 38.3519L42.2113 48.0003H55.7893L56.8596 38.3519L63.469 33.3519L68.0002 26.6097V15.4687L63.4611 7.5195L53.4411 2H44.5583L34.5583 7.5195L29.9997 15.4687V26.6097L34.5309 33.3988L41.141 38.3519ZM34.0004 16.5319L37.4613 10.4811L45.5902 6.0006H52.4105L60.5394 10.4811L64.0003 16.5319V25.3913L60.5315 30.6022L53.0823 36.192L52.2112 44.0006H45.7893L44.9182 36.192L37.469 30.6022L34.0002 25.3913L34.0004 16.5319Z" fill="#E200B1"/>
<path d="M42 52H56V56H42V52Z" fill="#E200B1"/>
<path d="M45 23.8281L47.4688 26.289H50.5313L53.0001 23.8281L55.5899 26.4101L58.4102 23.5898L54.5313 19.7109H51.4688L49 22.1718L46.5312 19.7109H43.4687L39.5898 23.5898L42.4101 26.4101L45 23.8281Z" fill="#E200B1"/>
<path d="M18.805 36.4019L26.805 30.4019L29.2073 33.6011L21.2073 39.6011L18.805 36.4019Z" fill="#E200B1"/>
<path d="M68.801 33.602L71.1994 30.4028L79.1994 36.4028L76.801 39.602L68.801 33.602Z" fill="#E200B1"/>
<path d="M18.801 3.60154L21.1994 0.402344L29.1994 6.40234L26.801 9.60154L18.801 3.60154Z" fill="#E200B1"/>
<path d="M68.805 6.39795L76.805 0.397949L79.2073 3.59715L71.2073 9.59715L68.805 6.39795Z" fill="#E200B1"/>
<path d="M14 18H24V22H14V18Z" fill="#E200B1"/>
<path d="M74 18H84V22H74V18Z" fill="#E200B1"/>
</svg>
