<svg width="130" height="100" viewBox="0 0 130 100" fill="none" xmlns="http://www.w3.org/2000/svg">
<path d="M20.0062 0.00676804L0.00515747 30.0083L65 100L129.995 30.0015L110.001 0H20.0062V0.00676804ZM107.317 5.01041L108.976 7.48904L90.3168 26.1482L75.2132 5.0033L107.317 5.01041ZM69.0662 5.01041L86.9267 30.0083H43.0767L60.9372 5.01041H69.0662ZM22.6848 5.01041H54.7964L39.6862 26.1485L21.027 7.49615L22.6848 5.01041ZM6.35184 29.5007L18.1968 11.74L36.4667 30.01H6.82056L6.35184 29.5007ZM11.4744 35.0067H39.0376L54.4717 81.3153L11.4744 35.0067ZM65.0017 92.6509L62.6882 90.1723L44.3066 35.0053H85.6978L67.3094 90.1723L65.0017 92.6509ZM75.5379 81.3084L90.972 34.9997H118.535L75.5379 81.3084ZM123.652 29.5003L123.183 30.0093H93.5366L111.807 11.7393L123.652 29.5003Z" fill="#E200B0"/>
</svg>
