<svg width="100" height="100" viewBox="0 0 100 100" fill="none" xmlns="http://www.w3.org/2000/svg">
<path d="M80.0003 40.0002C91.0297 40.0002 100 31.0294 100 20.0002C100 8.9711 91.0295 0.000213369 80.0003 0.000213369C71.992 0.000213369 65.0883 4.74187 61.8958 11.5586L56.5416 9.58358C56.6041 9.17108 56.6666 8.75858 56.6666 8.33355C56.6666 3.73771 52.9291 0.000213369 48.3333 0.000213369C43.7375 0.000213369 40 3.73771 40 8.33355C40 12.9294 43.7375 16.6669 48.3333 16.6669C51.3167 16.6669 53.9208 15.0752 55.3917 12.7086L60.7375 14.6836C60.2708 16.3794 60 18.1586 60 20.0003C60 22.1837 60.3625 24.2795 61.0125 26.2504L42.6829 34.017C39.3246 27.6712 32.6662 23.3332 24.9996 23.3332C22.5163 23.3332 20.1455 23.8082 17.9496 24.6416L13.3413 14.9541C15.3496 13.4291 16.6663 11.0416 16.6663 8.33334C16.6663 3.7375 12.9288 0 8.33297 0C3.73713 0 -0.000366211 3.7375 -0.000366211 8.33334C-0.000366211 12.9292 3.73713 16.6667 8.33297 16.6667C9.02464 16.6667 9.69127 16.5583 10.3371 16.3958L14.9413 26.075C9.00796 29.5458 4.99964 35.9749 4.99964 43.3337C4.99964 50.2462 8.52465 56.3502 13.8746 59.9417L10.8246 65.4208C10.0329 65.1708 9.20796 65 8.33297 65C3.73713 65 -0.000366211 68.7375 -0.000366211 73.3333C-0.000366211 77.9292 3.73713 81.6667 8.33297 81.6667C12.9288 81.6667 16.6663 77.9292 16.6663 73.3333C16.6663 70.8083 15.5163 68.5709 13.7371 67.0417L16.7913 61.5501C19.2997 62.6876 22.0746 63.3334 24.9996 63.3334C29.5747 63.3334 33.7789 61.7751 37.1543 59.1793L43.7126 66.3959C40.3876 69.971 38.3334 74.7418 38.3334 80.0002C38.3334 81.0211 38.4334 82.0127 38.5834 82.9919L30.8667 84.8253C29.5334 81.9836 26.6709 80.0003 23.3334 80.0003C18.7375 80.0003 15 83.7378 15 88.3337C15 92.9295 18.7375 96.667 23.3334 96.667C27.9292 96.667 31.6667 92.9295 31.6667 88.3337C31.6667 88.242 31.6417 88.1545 31.6417 88.0628L39.3459 86.2379C41.9709 94.2171 49.4834 100 58.3337 100C69.363 100 78.3337 91.0291 78.3337 80C78.3337 76.5792 77.467 73.3583 75.9503 70.5416L85.742 64.1749C87.2504 65.7124 89.3504 66.6665 91.667 66.6665C96.2629 66.6665 100 62.929 100 58.3332C100 53.7374 96.2629 49.9999 91.667 49.9999C87.0712 49.9999 83.3337 53.7374 83.3337 58.3332C83.3337 59.4082 83.5545 60.4333 83.9295 61.3791L74.117 67.7583C72.1546 65.2333 69.6045 63.1958 66.667 61.8416L74.8004 39.2912C76.4629 39.737 78.2004 39.9995 80.0004 39.9995L80.0003 40.0002ZM48.3331 13.3336C45.5748 13.3336 43.3331 11.0918 43.3331 8.33355C43.3331 5.57526 45.5748 3.33355 48.3331 3.33355C51.0914 3.33355 53.3331 5.57526 53.3331 8.33355C53.3331 11.0918 51.0914 13.3336 48.3331 13.3336ZM3.33254 8.33355C3.33254 5.57526 5.57425 3.33355 8.33254 3.33355C11.0908 3.33355 13.3325 5.57526 13.3325 8.33355C13.3325 11.0918 11.0908 13.3336 8.33254 13.3336C5.57425 13.3336 3.33254 11.0918 3.33254 8.33355ZM8.33254 78.3336C5.57425 78.3336 3.33254 76.0919 3.33254 73.3336C3.33254 70.5753 5.57425 68.3336 8.33254 68.3336C11.0908 68.3336 13.3325 70.5753 13.3325 73.3336C13.3325 76.0919 11.0908 78.3336 8.33254 78.3336ZM23.332 93.3331C20.5737 93.3331 18.332 91.0914 18.332 88.3331C18.332 85.5748 20.5737 83.3331 23.332 83.3331C26.0903 83.3331 28.332 85.5748 28.332 88.3331C28.332 91.0914 26.0903 93.3331 23.332 93.3331ZM91.6649 53.333C94.4232 53.333 96.6649 55.5748 96.6649 58.333C96.6649 61.0913 94.4232 63.3331 91.6649 63.3331C88.9066 63.3331 86.6649 61.0913 86.6649 58.333C86.6649 55.5748 88.9066 53.333 91.6649 53.333ZM70.1811 33.4418C70.927 29.5835 74.3228 26.6668 78.3311 26.6668H81.6644C85.6728 26.6668 89.0686 29.5835 89.8144 33.4418C87.0561 35.4585 83.6686 36.6668 79.9978 36.6668C76.3269 36.6668 72.9394 35.4585 70.1811 33.4418ZM79.9978 23.3335C77.2395 23.3335 74.9978 21.0917 74.9978 18.3335C74.9978 15.5752 77.2395 13.3334 79.9978 13.3334C82.7561 13.3334 84.9978 15.5752 84.9978 18.3335C84.9978 21.0917 82.7561 23.3335 79.9978 23.3335ZM79.9978 3.33344C89.1894 3.33344 96.6644 10.8084 96.6644 20.0001C96.6644 24.1667 95.1145 27.9752 92.577 30.9004C91.4103 27.8254 88.9728 25.3712 85.9394 24.1587C87.4144 22.6545 88.3311 20.6004 88.3311 18.3338C88.3311 13.7379 84.5936 10.0004 79.9978 10.0004C75.4019 10.0004 71.6644 13.7379 71.6644 18.3338C71.6644 20.6004 72.5811 22.6546 74.0561 24.1587C71.0227 25.3712 68.5894 27.8254 67.4186 30.9004C64.8811 27.9754 63.3311 24.1671 63.3311 20.0001C63.3311 10.8084 70.8061 3.33344 79.9978 3.33344ZM8.33052 43.3335C8.33052 34.1418 15.8055 26.6668 24.9972 26.6668C34.1889 26.6668 41.6639 34.1418 41.6639 43.3335C41.6639 47.5127 40.1056 51.3293 37.5555 54.2583C36.393 51.1708 33.9513 48.7041 30.9096 47.4915C32.3805 45.9873 33.2971 43.9333 33.2971 41.6666C33.2971 37.0707 29.5597 33.3332 24.9638 33.3332C20.368 33.3332 16.6305 37.0707 16.6305 41.6666C16.6305 43.9333 17.5471 45.9874 19.0222 47.4915C15.9972 48.6999 13.5638 51.1416 12.393 54.2082C9.86801 51.2832 8.33052 47.4874 8.33052 43.3336V43.3335ZM19.9636 41.6668C19.9636 38.9085 22.2053 36.6668 24.9636 36.6668C27.7219 36.6668 29.9636 38.9085 29.9636 41.6668C29.9636 44.4251 27.7219 46.6668 24.9636 46.6668C22.2053 46.6668 19.9636 44.4251 19.9636 41.6668ZM15.1553 56.7505C15.9053 52.9088 19.2969 50.0006 23.2969 50.0006H26.6303C30.6427 50.0006 34.0469 52.9297 34.7802 56.7964C32.0303 58.8006 28.6552 60.0006 24.9969 60.0006C21.3136 60.0006 17.9136 58.7839 15.1552 56.7505H15.1553ZM48.4886 93.4172C49.2386 89.5755 52.6303 86.6672 56.6303 86.6672H59.9636C63.9761 86.6672 67.3803 89.5964 68.1136 93.4631C65.3636 95.4673 61.9886 96.6673 58.3302 96.6673C54.6469 96.6673 51.2469 95.4506 48.4885 93.4172H48.4886ZM58.2969 83.3339C55.5387 83.3339 53.2969 81.0922 53.2969 78.3339C53.2969 75.5756 55.5387 73.3339 58.2969 73.3339C61.0552 73.3339 63.297 75.5756 63.297 78.3339C63.297 81.0922 61.0552 83.3339 58.2969 83.3339ZM74.9967 80.0006C74.9967 84.1798 73.4384 87.9964 70.8883 90.9254C69.7259 87.8379 67.2842 85.3712 64.2424 84.1587C65.7133 82.6544 66.63 80.6004 66.63 78.3337C66.63 73.7379 62.8925 70.0004 58.2966 70.0004C53.7008 70.0004 49.9633 73.7379 49.9633 78.3337C49.9633 80.6004 50.88 82.6546 52.355 84.1587C49.33 85.367 46.8966 87.8087 45.7258 90.8754C43.2008 87.9503 41.6633 84.1545 41.6633 80.0007C41.6633 70.809 49.1383 63.334 58.33 63.334C67.5217 63.334 74.9967 70.809 74.9967 80.0007V80.0006ZM63.53 60.7088C61.8675 60.263 60.13 60.0005 58.33 60.0005C53.755 60.0005 49.5508 61.5588 46.1753 64.1546L39.617 56.938C42.9421 53.363 44.9962 48.5922 44.9962 43.3337C44.9962 41.1504 44.6338 39.0546 43.9837 37.0837L62.3134 29.3171C64.3675 33.2004 67.6633 36.3129 71.6633 38.1588L63.53 60.7088Z" fill="#E200B0"/>
</svg>
