<svg width="97" height="98" viewBox="0 0 97 98" fill="none" xmlns="http://www.w3.org/2000/svg">
<path d="M34.438 61.5C37.8833 61.5 40.688 58.6953 40.688 55.25H37.563C37.563 56.9727 36.1607 58.375 34.438 58.375C32.7153 58.375 31.313 56.9727 31.313 55.25H28.188C28.188 58.6953 30.9927 61.5 34.438 61.5Z" fill="#E200B1"/>
<path d="M64.125 0.5625H67.25V6.8125H64.125V0.5625Z" fill="#E200B1"/>
<path d="M48.012 8.53121L50.2229 6.32031L54.6409 10.7383L52.43 12.9492L48.012 8.53121Z" fill="#E200B1"/>
<path d="M77.082 10.7422L81.5 6.32422L83.7109 8.53512L79.2929 12.9531L77.082 10.7422Z" fill="#E200B1"/>
<path d="M96.938 65.8359V54.0349L91.1099 52.5427C90.6529 51.0661 90.063 49.6404 89.3521 48.2849L92.4146 43.113L84.0708 34.7692L78.8989 37.8317C78.0942 37.4098 77.2544 37.0427 76.4028 36.7067C76.1684 35.9411 75.7622 35.2497 75.1997 34.7067C75.5278 34.1872 75.8833 33.6872 76.2856 33.2262C78.52 30.6715 79.7504 27.3942 79.7504 23.9996C79.7504 20.0074 78.0434 16.1871 75.0668 13.5226C72.0902 10.8585 68.0902 9.58123 64.0898 10.0265C58.8515 10.6086 54.3476 14.257 52.5198 19.0851C51.8245 18.2961 51.0003 17.6085 50.0667 17.0695C47.5433 15.6125 44.5042 15.4445 41.8323 16.5461C40.0706 14.257 37.3518 12.882 34.4378 12.882C31.5238 12.882 28.805 14.257 27.0472 16.5461C24.3792 15.4445 21.3363 15.6125 18.8128 17.0695C16.2894 18.5304 14.6214 21.0773 14.2425 23.9367C11.3792 24.3156 8.83229 25.9836 7.37529 28.507C5.91829 31.0304 5.75029 34.0734 6.85185 36.7414C4.56275 38.4992 3.18775 41.218 3.18775 44.132C3.18775 47.0461 4.56275 49.7648 6.85185 51.5226C5.74635 54.1906 5.91826 57.2296 7.37529 59.757C8.83229 62.2804 11.3792 63.9484 14.2425 64.3273C14.6214 67.1906 16.2894 69.7375 18.8128 71.1945C18.8597 71.2219 18.9065 71.2375 18.9534 71.2648L7.53941 75.0695C3.06671 76.5578 0.0628052 80.7297 0.0628052 85.4445V97.4365H68.8128V89.624H73.1487L74.6409 83.7959C76.1175 83.3389 77.5432 82.749 78.8987 82.0381L84.0706 85.1006L92.4144 76.7568L89.3519 71.5849C90.0667 70.2333 90.6527 68.8037 91.1097 67.3271L96.938 65.8359ZM61.29 42.7499H70.0869C69.4384 44.5624 67.7197 45.8749 65.6885 45.8749C63.6533 45.8749 61.9346 44.5624 61.2901 42.7499H61.29ZM71.938 39.6249H59.438C58.5786 39.6249 57.8755 38.9257 57.8755 38.0624C57.8755 37.1991 58.5786 36.4999 59.438 36.4999H71.938C72.7974 36.4999 73.5005 37.1991 73.5005 38.0624C73.5005 38.9257 72.7974 39.6249 71.938 39.6249ZM64.1255 23.9999C64.1255 23.1366 64.8286 22.4374 65.688 22.4374C66.5474 22.4374 67.2505 23.1366 67.2505 23.9999C67.2505 24.8632 66.5474 25.5624 65.688 25.5624C64.8286 25.5624 64.1255 24.8632 64.1255 23.9999ZM54.8872 22.2343C55.6255 17.4921 59.6411 13.664 64.4302 13.1327C67.5982 12.7773 70.6294 13.7499 72.9771 15.8475C75.2974 17.9217 76.6255 20.8944 76.6255 23.9998C76.6255 26.6365 75.6724 29.1834 73.9341 31.1717C73.3286 31.867 72.8169 32.6287 72.3482 33.4178C72.2115 33.4061 72.0787 33.3749 71.938 33.3749H67.2505V28.3983C69.063 27.7498 70.3755 26.0311 70.3755 23.9999C70.3755 21.414 68.2739 19.3124 65.688 19.3124C63.1021 19.3124 61.0005 21.414 61.0005 23.9999C61.0005 26.0351 62.313 27.7538 64.1255 28.3983V33.3749H59.438C59.2896 33.3749 59.1529 33.4061 59.0122 33.4178C58.5396 32.617 58.0201 31.8397 57.4028 31.1248C55.2739 28.66 54.3794 25.5037 54.8872 22.2342L54.8872 22.2343ZM17.2892 62.8903L17.3361 61.2341L15.6799 61.281C13.3674 61.3826 11.219 60.1677 10.0783 58.1951C8.93766 56.2224 8.98846 53.7732 10.2033 51.8006L11.0705 50.3944L9.61345 49.6092C7.57825 48.5037 6.31265 46.4061 6.31265 44.1326C6.31265 41.8553 7.57825 39.7576 9.62125 38.656L11.0783 37.8709L10.2111 36.4607C8.99626 34.488 8.94546 32.0388 10.0861 30.0701C11.2228 28.1013 13.3517 26.8631 15.6877 26.9842L17.3439 27.0311L17.297 25.3749C17.2306 23.0585 18.4142 20.914 20.3829 19.7733C22.3517 18.6327 24.8048 18.6874 26.7774 19.8983L28.1836 20.7654L28.9687 19.3123C30.0703 17.2732 32.1679 16.0076 34.4414 16.0076C36.7148 16.0076 38.8164 17.2732 39.9141 19.3123L40.6993 20.7654L42.1055 19.8983C44.0782 18.6835 46.5274 18.6327 48.5 19.7733C50.1953 20.7498 51.3672 22.4178 51.6406 24.2342H51.6484C51.7109 27.5076 52.875 30.6717 55.0312 33.1678C55.4531 33.656 55.8203 34.1795 56.1601 34.7225C55.2929 35.5701 54.7499 36.7537 54.7499 38.0623C54.7499 40.1443 56.1249 41.8943 58.0077 42.5037C58.3788 44.6678 59.6288 46.5349 61.3944 47.7029C60.8358 48.4802 60.1171 49.1404 59.2577 49.6052L57.8007 50.3903L58.6679 51.8005C59.8827 53.7771 59.9335 56.2224 58.7929 58.195C57.6562 60.1677 55.496 61.3942 53.1913 61.2809L51.5351 61.234L51.582 62.8902C51.6484 65.2066 50.4648 67.3511 48.4961 68.4918C47.543 69.0465 46.4609 69.3161 45.3711 69.3083V65.3786C48.043 63.1677 50.0234 60.1598 50.9805 56.7263C54.8516 56.2575 57.875 52.9919 57.875 48.9997C57.875 45.2263 55.1875 42.07 51.625 41.3435V36.4997H48.5C43.7969 36.4997 39.1367 34.945 35.375 32.1247L34.4375 31.4215L33.5 32.1247C29.7383 34.945 25.0781 36.4997 20.375 36.4997H17.25V41.3435C13.6875 42.07 11 45.2263 11 48.9997C11 52.9919 14.0234 56.2575 17.8906 56.7185C18.8437 60.1521 20.8242 63.1599 23.5 65.3708V69.3083C22.4102 69.3161 21.3281 69.0387 20.375 68.4879C18.4062 67.3512 17.2227 65.2027 17.2891 62.8902L17.2892 62.8903ZM34.4372 78.0383L26.6247 70.2258V67.4133C28.9724 68.6164 31.6247 69.3117 34.4372 69.3117C37.2497 69.3117 39.902 68.6164 42.2497 67.4133V70.2258L34.4372 78.0383ZM48.4992 45.8743C48.4992 46.7376 47.7961 47.4368 46.9367 47.4368H40.6867C39.8273 47.4368 39.1242 46.7376 39.1242 45.8743V44.3118H48.4992V45.8743ZM51.6242 52.1243V44.6009C53.4367 45.2494 54.7492 46.9681 54.7492 48.9993C54.7492 51.0579 53.4054 52.7923 51.5578 53.4212C51.5929 52.9915 51.6242 52.5618 51.6242 52.1243H51.6242ZM48.4992 41.1863H35.9992V44.3113H32.8742V41.1863H20.3742V39.6238C25.3625 39.6238 30.3117 38.0926 34.4362 35.2957C38.5612 38.0926 43.5104 39.6238 48.4982 39.6238L48.4992 41.1863ZM29.7492 44.3113V45.8738C29.7492 46.7371 29.0461 47.4363 28.1867 47.4363H21.9367C21.0773 47.4363 20.3742 46.7371 20.3742 45.8738V44.3113H29.7492ZM17.3152 53.4207C15.4675 52.7918 14.1238 51.0574 14.1238 48.9988C14.1238 46.9636 15.4363 45.2449 17.2488 44.6004V52.1238C17.2488 52.5613 17.28 52.991 17.3152 53.4207H17.3152ZM20.3738 50.2723C20.866 50.4481 21.3855 50.5614 21.9363 50.5614H28.1863C30.2215 50.5614 31.9402 49.2489 32.5847 47.4364H36.2878C36.9362 49.2489 38.655 50.5614 40.6862 50.5614H46.9362C47.487 50.5614 48.0065 50.4481 48.4987 50.2723V52.1239C48.4987 59.8778 42.1901 66.1859 34.4367 66.1859C26.6833 66.1859 20.3747 59.8773 20.3747 52.1239L20.3738 50.2723ZM31.9828 80.0063L25.7328 84.1743L21.1117 73.8383L24.639 72.6625L31.9828 80.0063ZM44.2328 72.6625L47.7601 73.8383L43.139 84.1743L36.889 80.0063L44.2328 72.6625ZM65.6858 94.3105H56.3108V83.3725H53.1858V94.3105H15.6858V83.3725H12.5608V94.3105H3.18579V85.4433C3.18579 82.0761 5.33418 79.0956 8.52958 78.0331L18.1312 74.83L24.389 88.822L34.436 82.1267L44.483 88.822L50.7408 74.83L60.3424 78.0331C63.5377 79.0956 65.6862 82.0761 65.6862 85.4433L65.6858 94.3105ZM88.5838 64.7485L88.3455 65.6313C87.8533 67.4672 87.1267 69.2172 86.1971 70.8344L85.7401 71.6274L88.4862 76.2641L83.5721 81.1782L78.9354 78.4282L78.1463 78.8852C76.5291 79.8188 74.7752 80.5414 72.9432 81.0336L72.0604 81.2719L70.7245 86.4985H68.8104V85.4438C68.8104 80.729 65.8065 76.5571 61.3338 75.0688L49.9198 71.2641C49.9667 71.2407 50.0136 71.2211 50.0604 71.1938C52.5838 69.7329 54.2518 67.1899 54.6307 64.3266C57.494 63.9516 60.0409 62.2836 61.4979 59.7563C62.9549 57.2329 63.1229 54.1899 62.0214 51.5219C62.9706 50.7914 63.7675 49.8852 64.373 48.8657C64.8027 48.9399 65.2362 48.9985 65.6855 48.9985C69.541 48.9985 72.7363 46.1821 73.3652 42.5024C74.623 42.0962 75.6464 41.1899 76.1894 40.0024C76.8612 40.3032 77.5136 40.6274 78.1425 40.9868L78.9315 41.4438L83.5682 38.6938L88.4823 43.6079L85.7362 48.2446L86.1933 49.0376C87.1268 50.6548 87.8494 52.4048 88.3417 54.2407L88.5799 55.1235L93.8104 56.4594V63.4086L88.5838 64.7485Z" fill="#E200B1"/>
<path d="M77.734 44.3911L75.984 46.9809C80.3004 49.895 82.8746 54.7387 82.8746 59.9379C82.8746 67.3285 77.6285 73.7659 70.4016 75.2469L71.0266 78.3094C79.7024 76.5321 85.9996 68.8055 85.9996 59.9384C85.9996 53.7001 82.9098 47.8874 77.734 44.3914V44.3911Z" fill="#E200B1"/>
<path d="M79.75 59.9378C79.75 55.7776 77.6914 51.9026 74.2383 49.5708L72.4883 52.1606C75.0781 53.9145 76.625 56.8168 76.625 59.9379C76.625 65.1098 72.4219 69.3129 67.25 69.3129C64.1914 69.3129 61.3203 67.8168 59.5625 65.309L57 67.0981C59.3438 70.4419 63.1758 72.4379 67.25 72.4379C74.1406 72.4379 79.75 66.8285 79.75 59.9379V59.9378Z" fill="#E200B1"/>
</svg>
