<svg width="102" height="100" viewBox="0 0 102 100" fill="none" xmlns="http://www.w3.org/2000/svg">
<path d="M89.4455 99.9988C83.0665 99.9988 77.7734 94.8232 77.7734 88.3267L77.7687 10.8295C77.7687 6.85727 74.5204 3.60903 70.5482 3.60903C66.576 3.60903 63.3278 6.85727 63.3278 10.8295V79.5466C63.3278 84.238 59.5953 87.9705 54.9039 87.9705C50.2125 87.9705 46.48 84.238 46.48 79.5466V19.3761C46.48 16.9693 44.5526 14.9245 42.0284 14.9245C39.6215 14.9245 37.5767 16.8518 37.5767 19.3761V68.9554C37.5767 72.8054 34.4459 76.0536 30.4785 76.0536C26.5063 76.0536 23.3803 72.9228 23.3803 68.9554V29.2429C23.3803 28.1617 22.5389 27.198 21.3355 27.198C20.2543 27.198 19.2906 28.0395 19.2906 29.2429V59.0886C19.2906 61.6177 17.2458 63.78 14.5993 63.78C11.9527 63.78 9.9079 61.7352 9.9079 59.0886V39.8341C9.9079 39.4721 9.66816 39.2324 9.30619 39.2324C8.94423 39.2324 8.70449 39.4721 8.70449 39.8341V44.408C8.70449 47.7785 5.93568 50.425 2.68744 50.425C1.72377 50.425 0.882324 49.5836 0.882324 48.6199C0.882324 47.6563 1.72377 46.8148 2.68744 46.8148C4.01312 46.8148 5.09426 45.7336 5.09426 44.408V39.8341C5.09426 37.5495 7.02164 35.6221 9.30619 35.6221C11.5907 35.6221 13.5181 37.5495 13.5181 39.8341V59.0886C13.5181 59.6903 13.9976 60.1698 14.5993 60.1698C15.201 60.1698 15.6805 59.6903 15.6805 59.0886L15.6758 29.1213C15.6758 25.9905 18.2049 23.4663 21.3309 23.4663C24.4617 23.4663 26.9859 25.9953 26.9859 29.1213V68.8339C26.9859 70.7612 28.5513 72.3218 30.4739 72.3218C32.4013 72.3218 33.9619 70.7564 33.9619 68.8339L33.9666 19.2546C33.9666 14.8029 37.5768 11.1927 42.0285 11.1927C46.4801 11.1927 50.0903 14.8029 50.0903 19.2546V79.4251C50.0903 82.0716 52.2574 84.2387 54.904 84.2387C57.5505 84.2387 59.7176 82.0716 59.7176 79.4251V10.8307C59.7176 4.81364 64.5313 0 70.5483 0C76.5654 0 81.379 4.81364 81.379 10.8307V88.3279C81.379 92.7795 84.9892 96.3898 89.4409 96.3898C93.8925 96.3898 97.5028 92.7795 97.5028 88.3279L97.5075 47.6514C97.5075 46.6878 98.3489 45.8463 99.3126 45.8463C100.276 45.8463 101.118 46.6878 101.118 47.6514V88.3279C101.118 94.7069 95.8199 100 89.4456 100L89.4455 99.9988Z" fill="#0033FF"/>
</svg>
