<svg width="101" height="100" viewBox="0 0 101 100" fill="none" xmlns="http://www.w3.org/2000/svg">
<path d="M46.945 49.5781L44.6638 62.2501C44.5466 62.8438 44.7849 63.4532 45.2732 63.8126L49.5701 66.9376C50.117 67.3321 50.8513 67.3321 51.3982 66.9376L55.6951 63.9064C56.1951 63.5548 56.4451 62.9454 56.3357 62.3439L54.1638 49.5469C53.1404 49.793 52.0935 49.9336 51.0388 49.9688L53.0622 61.9378L50.4997 63.7581L47.8981 61.844L50.0465 50C48.9996 49.9648 47.9606 49.8242 46.9449 49.5781H46.945Z" fill="#E200B0"/>
<path d="M73.938 72.9999V58.3119C73.9614 55.0189 72.8638 51.8158 70.8286 49.2299C68.7895 46.644 65.9341 44.8276 62.727 44.0776C61.8833 45.1284 60.9106 46.0698 59.8286 46.8745C66.0044 47.0308 70.9066 52.1323 70.8126 58.3125V73.0005C70.8243 73.2271 70.6563 73.4224 70.4298 73.438H66.1251V70.313C66.1251 69.4498 65.4259 68.7505 64.5626 68.7505C63.6993 68.7505 63.0001 69.4498 63.0001 70.313V73.438H38.0001V70.313C38.0001 69.4498 37.3009 68.7505 36.4376 68.7505C35.5743 68.7505 34.8751 69.4498 34.8751 70.313V73.438H30.5704C30.3438 73.4224 30.1759 73.2271 30.1876 73.0005V58.3125C30.0938 52.1328 34.9962 47.0315 41.1716 46.8745C40.0935 46.0698 39.1208 45.1284 38.281 44.0776C35.074 44.8237 32.2146 46.6401 30.1755 49.226C28.1364 51.8158 27.0388 55.019 27.0622 58.3119V72.9999C27.0505 74.953 28.6169 76.5468 30.57 76.5624H70.414C71.3554 76.5585 72.2538 76.1796 72.914 75.5116C73.5741 74.8437 73.9452 73.9413 73.9374 72.9999H73.938Z" fill="#E200B0"/>
<path d="M63 34.3746C63 29.3199 59.9531 24.7613 55.2852 22.8276C50.6133 20.8901 45.2342 21.9604 41.6602 25.5346C38.086 29.1088 37.0157 34.4877 38.9532 39.1596C40.8868 43.8276 45.4454 46.8744 50.5002 46.8744C53.8166 46.8744 56.9963 45.558 59.34 43.2142C61.6837 40.8704 63.0002 37.6908 63.0002 34.3744L63 34.3746ZM50.5 43.7496C46.707 43.7496 43.2891 41.4644 41.8398 37.9605C40.3867 34.4605 41.1914 30.4253 43.871 27.7455C46.5507 25.0658 50.5858 24.2611 54.086 25.7143C57.5899 27.1635 59.8751 30.5815 59.8751 34.3745C59.8751 39.5503 55.6759 43.7495 50.5001 43.7495L50.5 43.7496Z" fill="#E200B0"/>
<path d="M1.75 32.8116H27.375C28.0977 32.7765 28.6562 32.1671 28.625 31.4444V21.3974C28.7227 17.6162 26.4023 14.1904 22.8516 12.8818C22.0743 13.9756 21.0899 14.9091 19.9532 15.624H20.5001C23.2579 15.624 25.5001 18.2099 25.5001 21.3974V29.6865H3.62508V21.3974C3.62508 18.2099 5.86728 15.624 8.62508 15.624H9.17196C8.03526 14.9092 7.05086 13.9756 6.27356 12.8818C2.72276 14.1904 0.402463 17.6162 0.500163 21.3974V31.4444C0.468913 32.1671 1.0275 32.7764 1.75016 32.8116H1.75Z" fill="#E200B0"/>
<path d="M14.562 14.0619C17.4058 14.0619 19.9682 12.3471 21.0581 9.72206C22.1479 7.09316 21.5464 4.06976 19.5347 2.05796C17.523 0.0462556 14.4995 -0.555344 11.8706 0.534556C9.24561 1.62436 7.53081 4.18686 7.53081 7.03066C7.53081 10.9135 10.6792 14.0619 14.562 14.0619ZM14.562 3.12386C16.1401 3.12386 17.5659 4.07698 18.1714 5.53406C18.7769 6.99496 18.4409 8.67466 17.3237 9.79186C16.2065 10.9091 14.5268 11.245 13.0659 10.6395C11.6089 10.034 10.6557 8.60832 10.6557 7.03012C10.6557 4.87392 12.4057 3.12392 14.5619 3.12392L14.562 3.12386Z" fill="#E200B0"/>
<path d="M94.727 12.8828C93.9497 13.9766 92.9653 14.9101 91.8286 15.625H92.3755C95.1333 15.625 97.3755 18.2109 97.3755 21.3984V29.6875H75.5005V21.3984C75.5005 18.2187 77.7427 15.625 80.5005 15.625H81.0474C79.9107 14.9102 78.9263 13.9766 78.149 12.8828C74.5982 14.1914 72.2779 17.6172 72.3756 21.3984V31.4454C72.3443 32.1681 72.9029 32.7774 73.6256 32.8126H99.2506C99.9732 32.7775 100.532 32.1681 100.501 31.4454V21.3984C100.598 17.6172 98.2779 14.1914 94.7272 12.8828H94.727Z" fill="#E200B0"/>
<path d="M86.438 14.0619C89.2818 14.0619 91.8442 12.3471 92.9341 9.72206C94.0239 7.09316 93.4224 4.06976 91.4107 2.05796C89.399 0.0462556 86.3755 -0.555344 83.7466 0.534556C81.1216 1.62436 79.4068 4.18686 79.4068 7.03066C79.4068 10.9135 82.5552 14.0619 86.438 14.0619ZM86.438 3.12386C88.0161 3.12386 89.4419 4.07698 90.0474 5.53406C90.6529 6.99496 90.3169 8.67466 89.1997 9.79186C88.0825 10.9091 86.4028 11.245 84.9419 10.6395C83.4849 10.034 82.5317 8.60832 82.5317 7.03012C82.5317 4.87392 84.2817 3.12392 86.4379 3.12392L86.438 3.12386Z" fill="#E200B0"/>
<path d="M22.852 80.0698C22.0747 81.1636 21.0903 82.0971 19.9536 82.812H20.5005C23.2583 82.812 25.5005 85.3979 25.5005 88.5854V96.8745H3.62548V88.5854C3.62548 85.4057 5.86768 82.812 8.62548 82.812H9.17236C8.03566 82.0972 7.05126 81.1636 6.27396 80.0698C2.72316 81.3784 0.40286 84.8042 0.50056 88.5854V98.6324C0.46931 99.3551 1.0279 99.9644 1.75056 99.9996H27.3756C28.0982 99.9645 28.6568 99.3551 28.6256 98.6324V88.5854C28.7232 84.8042 26.4029 81.3784 22.8522 80.0698H22.852Z" fill="#E200B0"/>
<path d="M7.5312 74.2187C7.5312 77.0625 9.246 79.6249 11.871 80.7148C14.4999 81.8046 17.5233 81.2031 19.5351 79.1914C21.5468 77.1797 22.1484 74.1562 21.0585 71.5273C19.9687 68.9023 17.4062 67.1875 14.5624 67.1875C10.6796 67.1875 7.5312 70.3359 7.5312 74.2187ZM18.4692 74.2187C18.4692 75.7968 17.5161 77.2226 16.059 77.8281C14.5981 78.4336 12.9184 78.0976 11.8012 76.9804C10.684 75.8632 10.3481 74.1835 10.9535 72.7226C11.559 71.2656 12.9847 70.3124 14.5629 70.3124C15.5981 70.3124 16.5941 70.7226 17.3246 71.4569C18.059 72.1874 18.4691 73.1835 18.4691 74.2186L18.4692 74.2187Z" fill="#E200B0"/>
<path d="M94.727 80.0698C93.9497 81.1636 92.9653 82.0971 91.8286 82.812H92.3755C95.1333 82.812 97.3755 85.3979 97.3755 88.5854V96.8745H75.5005V88.5854C75.5005 85.4057 77.7427 82.812 80.5005 82.812H81.0474C79.9107 82.0972 78.9263 81.1636 78.149 80.0698C74.5982 81.3784 72.2779 84.8042 72.3756 88.5854V98.6324C72.3443 99.3551 72.9029 99.9644 73.6256 99.9996H99.2506C99.9732 99.9645 100.532 99.3551 100.501 98.6324V88.5854C100.598 84.8042 98.2779 81.3784 94.7272 80.0698H94.727Z" fill="#E200B0"/>
<path d="M86.438 81.2498C89.2818 81.2498 91.8442 79.535 92.9341 76.91C94.0239 74.2811 93.4224 71.2577 91.4107 69.2459C89.399 67.2342 86.3755 66.6326 83.7466 67.7225C81.1216 68.8123 79.4068 71.3748 79.4068 74.2186C79.4068 78.1014 82.5552 81.2498 86.438 81.2498ZM86.438 70.3118C88.0161 70.3118 89.4419 71.265 90.0474 72.722C90.6529 74.1829 90.3169 75.8626 89.1997 76.9798C88.0825 78.097 86.4028 78.4329 84.9419 77.8275C83.4849 77.222 82.5317 75.7963 82.5317 74.2181C82.5317 72.0619 84.2817 70.3119 86.4379 70.3119L86.438 70.3118Z" fill="#E200B0"/>
<path d="M52.062 89.4771C52.605 90.0708 53.5073 90.1529 54.1479 89.6763C54.7924 89.1958 54.9682 88.3052 54.5542 87.6177L51.7964 83.5005C51.5034 83.0747 51.0229 82.8208 50.5073 82.8208C49.9916 82.8208 49.5112 83.0747 49.2182 83.5005L46.4604 87.4458C46.0502 88.1294 46.2221 89.0122 46.8588 89.4927C47.4955 89.9732 48.39 89.8989 48.9369 89.3208V96.8364C43.0111 96.6411 37.1789 95.3169 31.7489 92.9302V96.3208C43.7689 101.215 57.2289 101.215 69.2489 96.3208V92.9692C63.8192 95.3559 57.9869 96.6801 52.0609 96.8754L52.062 89.4771Z" fill="#E200B0"/>
<path d="M48.938 3.12464V10.6558C48.395 10.0465 47.4732 9.96053 46.8247 10.4566C46.1763 10.9488 46.0161 11.8628 46.4614 12.5464L49.2192 16.4917C49.5044 16.9214 49.9848 17.1792 50.5004 17.187C51.016 17.1792 51.4965 16.9214 51.7816 16.4917L54.5394 12.3745C54.9222 11.6909 54.7386 10.8315 54.1136 10.3628C53.4886 9.89412 52.6136 9.95657 52.0628 10.5152V3.12456C60.473 3.398 68.6488 5.94876 75.7268 10.4996C76.0667 10.3277 76.4183 10.1753 76.7737 10.0386C76.473 9.11284 76.305 8.15192 76.2815 7.17922C68.5003 2.48392 59.5865 0.00341797 50.5005 0.00341797C41.4145 0.00341797 32.5005 2.48392 24.7195 7.17922C24.7 8.15969 24.536 9.13622 24.2352 10.0698C24.5906 10.2065 24.9422 10.3589 25.2821 10.5308C32.3524 5.96826 40.5281 3.40966 48.9381 3.12456L48.938 3.12464Z" fill="#E200B0"/>
<path d="M95.219 35.938C96.5042 39.9888 97.2307 44.1919 97.3752 48.438H89.844C90.4534 47.895 90.5393 46.9732 90.0432 46.3247C89.551 45.6762 88.637 45.5161 87.9534 45.9614L84.0081 48.7192C83.5823 49.0122 83.3284 49.4926 83.3284 50.0083C83.3284 50.5239 83.5823 51.0044 84.0081 51.2974L88.1253 54.0552C88.8128 54.4693 89.7034 54.2935 90.1839 53.649C90.6605 53.0083 90.5785 52.106 89.9847 51.5631H97.3753C97.1995 57.0162 96.0667 62.3951 94.0315 67.4541C94.8948 68.4189 95.5667 69.5361 96.0081 70.751C101 59.825 101.879 47.462 98.4769 35.939L95.219 35.938Z" fill="#E200B0"/>
<path d="M7.00781 67.4531C4.95701 62.3945 3.81251 57.0151 3.62501 51.5621H10.9766C10.3711 52.1011 10.2774 53.0152 10.7657 53.6676C11.25 54.316 12.1563 54.484 12.8438 54.0543L16.961 51.2965C17.3867 51.0035 17.6407 50.523 17.6407 50.0074C17.6407 49.4918 17.3867 49.0113 16.961 48.7183L13.0782 45.9605C12.3946 45.4917 11.461 45.6402 10.9571 46.3003C10.4493 46.9566 10.5469 47.898 11.1797 48.437H3.62503C3.76956 44.1909 4.49612 39.9878 5.78123 35.937H2.52343C-0.867172 47.464 0.0234275 59.828 5.03123 70.749C5.47264 69.5342 6.14453 68.417 7.00783 67.4521L7.00781 67.4531Z" fill="#E200B0"/>
</svg>
