<svg width="71" height="93" viewBox="0 0 71 93" fill="none" xmlns="http://www.w3.org/2000/svg">
<path d="M69.793 66.6561L48.773 18.2461C47.2574 14.7578 43.0308 11.8828 39.1871 11.6445C40.5738 10.5507 41.4644 8.86329 41.4644 6.96089C41.4644 3.66399 38.7925 0.996094 35.4996 0.996094C32.2067 0.996094 29.5348 3.66409 29.5348 6.96089C29.5348 8.85929 30.4293 10.5507 31.8121 11.6406C27.9644 11.8672 23.7262 14.75 22.2066 18.2422L1.19061 66.6562C-0.391389 70.2968 0.71795 71.0898 3.65541 68.4218C3.65541 68.4218 11.9562 60.8788 27.7534 58.8827C28.1675 61.8944 28.5815 64.8827 28.9917 67.7616C29.9409 74.4413 30.7769 80.0466 31.4175 83.9766C31.7691 86.1407 32.0659 87.8243 32.2964 88.9766C32.4292 89.6328 32.5425 90.1328 32.6441 90.5C32.7183 90.7773 32.7925 90.9961 32.8745 91.1914C33.4331 92.5234 34.6012 93 35.5035 93C36.4292 93 37.609 92.5117 38.1519 91.1367C38.2261 90.9492 38.2925 90.7422 38.3628 90.4726C38.4565 90.1133 38.5659 89.6211 38.6909 88.9687C38.9175 87.8203 39.2065 86.1406 39.5542 83.9804C40.1909 80.0351 41.0269 74.4335 41.9761 67.7774C42.3902 64.8751 42.812 61.8672 43.2261 58.8438C59.7221 60.7461 67.4841 68.2618 67.4841 68.2618C70.3318 71.0196 71.3708 70.297 69.7927 66.6563L69.793 66.6561ZM35.504 90.2341C34.7462 90.2341 29.0782 47.2501 26.8478 28.3161C21.0158 36.2653 13.2068 48.6911 12.9528 48.6911H12.9489C12.6403 48.5114 25.6369 20.0501 26.8709 17.9571C27.1522 17.4805 27.4803 17.129 27.8357 16.8712C29.7576 15.0978 32.824 14.3595 35.4998 14.3595C38.2068 14.3595 41.3084 15.1134 43.2264 16.9298C43.5546 17.1837 43.8554 17.5196 44.1132 17.9571C44.1366 17.9962 44.1679 18.0508 44.1991 18.1094C44.3593 18.3672 44.4999 18.6368 44.6171 18.9258C47.3241 24.3828 58.3201 48.5278 58.0351 48.6958H58.0312C57.7773 48.6958 49.9765 36.2778 44.1482 28.3328C41.8943 47.2668 36.1873 90.2348 35.5037 90.2348L35.504 90.2341ZM35.5001 3.54609C37.297 3.54609 38.7501 4.99919 38.7501 6.79609C38.7501 8.59299 37.297 10.0461 35.5001 10.0461C33.7071 10.0461 32.254 8.59299 32.254 6.79609C32.2501 5.00309 33.7071 3.54609 35.5001 3.54609Z" fill="#E200B0"/>
</svg>
