<svg width="95" height="96" viewBox="0 0 95 96" fill="none" xmlns="http://www.w3.org/2000/svg">
<path d="M94.473 31.074C94.473 28.7146 93.2113 26.5349 91.1605 25.3631C89.1097 24.1912 86.5902 24.2069 84.5589 25.41L69.9139 10.765C70.9139 9.12441 71.1444 7.12441 70.5467 5.29621C69.949 3.47201 68.5819 1.99541 66.8045 1.26101C65.0272 0.530536 63.0154 0.612567 61.3045 1.48757C59.5936 2.36257 58.3475 3.94067 57.9022 5.81177H37.1012C36.6559 3.94847 35.4176 2.37037 33.7145 1.49147C32.0114 0.612557 30.0075 0.522717 28.2301 1.24538C26.4528 1.96413 25.0817 3.42508 24.4684 5.24148C23.859 7.05788 24.07 9.05008 25.0504 10.6985L10.2654 25.4175C8.63654 24.4526 6.67164 24.2339 4.87094 24.8198C3.07404 25.4058 1.61314 26.7417 0.867035 28.48C0.120945 30.2183 0.160006 32.1948 0.972506 33.9019C1.78501 35.6089 3.29671 36.8863 5.11701 37.4019V58.3429C1.95681 59.2374 -0.0587946 62.3234 0.394305 65.5734C0.847425 68.8273 3.62871 71.2453 6.90991 71.2453C8.07011 71.2453 9.2107 70.9367 10.2146 70.3508L25.0896 85.2298C24.0896 86.8704 23.8552 88.8665 24.4529 90.6946C25.0466 92.5227 26.4177 93.9993 28.1951 94.7337C29.9724 95.4681 31.9803 95.386 33.6951 94.511C35.406 93.636 36.6521 92.0579 37.0974 90.1868H57.8984C58.3476 92.0657 59.5976 93.6516 61.3164 94.5227C63.0391 95.3977 65.0547 95.4719 66.8359 94.7298C68.6171 93.9837 69.9804 92.4954 70.5625 90.6556C71.1484 88.8197 70.8984 86.8158 69.875 85.179L84.605 70.363V70.359C86.2534 71.3122 88.2339 71.5035 90.0308 70.8864C91.8316 70.2653 93.2769 68.8981 93.9917 67.1325C94.7026 65.3708 94.6206 63.3825 93.7573 61.6872C92.894 59.988 91.3393 58.7497 89.4917 58.2888V37.4528C92.4175 36.7184 94.4683 34.0895 94.4722 31.0739L94.473 31.074ZM91.348 31.074C91.348 32.4724 90.5082 33.7302 89.2152 34.2654C87.9261 34.7967 86.4418 34.5037 85.4535 33.5154C84.4652 32.5272 84.1723 31.0427 84.7035 29.7537C85.2386 28.4607 86.5004 27.6209 87.8949 27.6209C89.8011 27.6248 91.3441 29.1678 91.348 31.074ZM64.297 3.89003C65.6954 3.89003 66.9532 4.72987 67.4884 6.02283C68.0236 7.31193 67.7267 8.79623 66.7384 9.78453C65.7501 10.7728 64.2657 11.0697 62.9767 10.5345C61.6837 9.99937 60.8439 8.74153 60.8439 7.34313C60.8478 5.43693 62.3908 3.89393 64.297 3.89003ZM30.703 3.89003C32.1014 3.89003 33.3592 4.72987 33.8944 6.02283C34.4296 7.31193 34.1327 8.79623 33.1444 9.78453C32.1561 10.7728 30.6717 11.0697 29.3827 10.5345C28.0897 9.99937 27.2499 8.74153 27.2499 7.34313C27.2538 5.43693 28.7968 3.89393 30.703 3.89003ZM3.457 31.074C3.457 29.6756 4.29683 28.4178 5.5898 27.8826C6.8789 27.3514 8.36319 27.6444 9.35149 28.6326C10.3398 29.6209 10.6327 31.1053 10.1015 32.3943C9.56633 33.6873 8.30459 34.5271 6.9101 34.5271C5.0039 34.5232 3.4609 32.9802 3.457 31.074ZM3.457 64.668C3.46481 62.793 4.9609 61.2657 6.8359 61.2149H6.91011C8.30461 61.2149 9.56631 62.0548 10.1015 63.3477C10.6367 64.6368 10.3398 66.1211 9.35151 67.1094C8.36323 68.0977 6.87881 68.3946 5.58981 67.8594C4.29681 67.3243 3.45701 66.0664 3.45701 64.668H3.457ZM30.703 92.109C29.3046 92.109 28.0468 91.2692 27.5116 89.9762C26.9764 88.6871 27.2733 87.2028 28.2616 86.2145C29.2499 85.2262 30.7343 84.9293 32.0233 85.4645C33.3163 85.9997 34.1561 87.2575 34.1561 88.6559C34.1522 90.5621 32.6092 92.1051 30.703 92.109ZM57.914 87.0621H37.086C36.5782 85.0387 35.1446 83.3707 33.2149 82.5738C31.2852 81.7809 29.0938 81.9449 27.3047 83.023L12.4647 68.1791C13.6209 66.3588 13.8085 64.0813 12.9647 62.0931C12.1209 60.1087 10.3553 58.6596 8.24199 58.226V37.5149C10.3475 37.0814 12.1053 35.6438 12.9568 33.6712C13.8045 31.6945 13.6326 29.429 12.4959 27.6048L27.2379 12.9288C29.0191 14.0382 31.2301 14.2296 33.1754 13.4405C35.1246 12.6475 36.5777 10.9757 37.0856 8.93657H57.9136C58.4214 10.9639 59.8589 12.628 61.7886 13.4249C63.7183 14.2218 65.9097 14.0538 67.6988 12.9718L82.3198 27.5888C81.1948 29.3818 81.0033 31.6083 81.808 33.5693C82.6088 35.5263 84.308 36.9795 86.3666 37.4715V58.2686C84.2963 58.7607 82.5932 60.2256 81.7963 62.1982C80.9995 64.167 81.2026 66.4053 82.3471 68.1982L67.6401 82.9952C65.8549 81.9366 63.6713 81.7843 61.7573 82.5851C59.8393 83.3859 58.4175 85.046 57.9135 87.0617L57.914 87.0621ZM64.2968 92.109C62.8984 92.109 61.6406 91.2692 61.1054 89.9762C60.5702 88.6871 60.8671 87.2028 61.8554 86.2145C62.8437 85.2262 64.3281 84.9293 65.6171 85.4645C66.9101 85.9997 67.7499 87.2575 67.7499 88.6559C67.746 90.5621 66.203 92.1051 64.2968 92.109ZM91.3478 64.668C91.3478 66.0664 90.5079 67.3242 89.215 67.8594C87.9259 68.3907 86.4416 68.0977 85.4533 67.1094C84.465 66.1211 84.1721 64.6367 84.7033 63.3477C85.2384 62.0547 86.5002 61.2149 87.8947 61.2149C89.8009 61.2188 91.3439 62.7618 91.3478 64.668Z" fill="#E200B0"/>
<path d="M67.812 77.9022V73.3006C67.812 68.3475 63.7026 64.4061 58.7495 64.4061H54.9214V62.7733C55.312 62.4373 55.773 62.078 56.1519 61.6874C58.4839 59.3241 59.7964 56.1366 59.8042 52.8124V43.5077H60.894C61.7573 43.5077 62.4565 42.8084 62.4565 41.9452C62.4487 36.9843 58.4331 32.9686 53.4721 32.9608H45.8354C44.7768 32.949 43.7416 33.2655 42.8666 33.867C38.1283 35.7342 35.0072 40.3084 34.9994 45.402V52.8122C34.9994 56.1325 36.3041 59.32 38.6283 61.6872C39.1322 62.2067 39.683 62.6833 40.2728 63.1052V64.406H36.4447C31.4916 64.406 27.3822 68.3474 27.3822 73.3005V77.9021C27.3822 78.7654 28.1635 79.4451 29.0267 79.4451H66.1677C67.031 79.4451 67.812 78.7655 67.812 77.9022ZM45.835 36.0862H53.4717C56.1123 36.0627 58.4365 37.8323 59.1162 40.3831H45.8352C44.6516 40.3831 43.6868 39.4221 43.6868 38.2347C43.6868 37.0472 44.6514 36.0862 45.835 36.0862ZM40.6319 39.0081C40.8663 40.4495 41.6866 41.7308 42.8975 42.5472C41.5655 43.7581 39.8858 44.5199 38.0928 44.723C38.2569 42.5824 39.1553 40.5667 40.6319 39.0081ZM38.1241 52.8131V47.86C40.0772 47.7076 43.4952 46.8288 46.3702 43.5084H56.6792V52.8131C56.6753 55.3209 55.6909 57.7233 53.9331 59.5084C52.23 61.3053 49.8628 62.3248 47.3862 62.3248C44.9096 62.3248 42.5424 61.3053 40.8354 59.5084C39.0893 57.7193 38.1162 55.317 38.1241 52.8131ZM47.378 65.45C48.8936 65.4539 50.3936 65.1609 51.796 64.5945V65.0164L47.4757 67.7352L43.3976 65.0399V64.7547C44.671 65.2235 46.0225 65.4578 47.378 65.45ZM30.507 73.3016C30.507 70.0711 33.2179 67.5321 36.4445 67.5321H41.3039L45.9367 70.4344V76.3211H30.5067L30.507 73.3016ZM64.687 76.3211H49.062V70.4578L53.8432 67.532H58.7494C61.976 67.532 64.6869 70.0711 64.6869 73.3015L64.687 76.3211Z" fill="#E200B0"/>
<path d="M46.148 50.6992C46.148 49.8359 45.4488 49.1367 44.5855 49.1367C43.7222 49.1367 43.023 49.8359 43.023 50.6992C43.023 50.8594 42.8941 50.9883 42.7339 50.9883C42.5738 50.9883 42.441 50.8594 42.441 50.6992C42.441 49.8359 41.7417 49.1367 40.8785 49.1367C40.0152 49.1367 39.316 49.8359 39.316 50.6992C39.316 52.5859 40.8472 54.1133 42.734 54.1133C44.6208 54.1133 46.1481 52.586 46.1481 50.6992H46.148Z" fill="#E200B0"/>
<path d="M52 54.1128C53.8828 54.1128 55.4141 52.5855 55.4141 50.6987C55.4141 49.8355 54.7149 49.1362 53.8516 49.1362C52.9883 49.1362 52.2891 49.8355 52.2891 50.6987C52.293 50.7769 52.2617 50.855 52.2071 50.9097C52.1524 50.9644 52.0782 50.9956 52 50.9956C51.9219 50.9956 51.8438 50.9644 51.7891 50.9097C51.7344 50.855 51.7071 50.7769 51.7071 50.6987C51.7071 49.8355 51.0078 49.1362 50.1446 49.1362C49.2813 49.1362 48.5821 49.8355 48.5821 50.6987C48.586 52.5854 50.1133 54.1128 52.0001 54.1128H52Z" fill="#E200B0"/>
<path d="M37.9526 30.4572C38.0581 31.2345 38.7144 31.8205 39.4995 31.84H55.6405C56.4257 31.8205 57.0819 31.2345 57.1874 30.4572L58.6249 20.4806C58.7148 19.8478 58.414 19.2267 57.8671 18.8986C57.3203 18.5744 56.6327 18.6173 56.1249 19.0001L52.1913 22.0118L48.8944 16.7345C48.6132 16.2853 48.1249 16.008 47.5936 16.0002C47.0663 15.9924 46.5663 16.2541 46.2733 16.6916L42.7186 22.0002L39.0467 19.0197V19.0236C38.5506 18.6173 37.8514 18.5587 37.2928 18.8751C36.7303 19.2033 36.4256 19.84 36.5155 20.4806L37.9526 30.4572ZM42.0776 25.5119V25.508C42.4214 25.7853 42.8628 25.9064 43.2964 25.84C43.7301 25.7736 44.1168 25.5314 44.3628 25.1642L47.5269 20.4376L50.4566 25.1212H50.4527C50.6871 25.4962 51.066 25.754 51.4996 25.8322C51.9332 25.9103 52.3785 25.8048 52.7301 25.5353L54.984 23.8517L54.2887 28.715H40.8507L40.1789 24.0119L42.0776 25.5119Z" fill="#E200B0"/>
</svg>
