<svg width="100" height="100" viewBox="0 0 100 100" fill="none" xmlns="http://www.w3.org/2000/svg">
<path d="M52.6937 40.1936L44.9707 47.9166H19.7915C8.87792 47.9166 -0.000213623 56.7952 -0.000213623 67.7083C-0.000213623 78.6214 8.87834 87.5 19.7915 87.5H25.1667C26.1839 94.5556 32.2509 100 39.5834 100C46.9159 100 52.9823 94.5556 54 87.5H71.0001C72.0173 94.5556 78.0842 100 85.4167 100C93.4572 100 100 93.4571 100 85.4166C100 77.3762 93.4572 70.8333 85.4167 70.8333C78.0843 70.8333 72.0178 76.2777 71.0001 83.3333H54C52.9828 76.2777 46.9159 70.8333 39.5834 70.8333C32.2509 70.8333 26.1844 76.2777 25.1667 83.3333H19.7915C11.1733 83.3333 4.16646 76.3264 4.16646 67.7083C4.16646 59.0902 11.1733 52.0833 19.7915 52.0833H44.9707L52.6937 59.8063L55.6396 56.8604L50.8626 52.0834H80.2085C91.1221 52.0834 100 43.2048 100 32.2917C100 21.3786 91.1216 12.5 80.2085 12.5H74.8333C73.816 5.44438 67.7491 0 60.4166 0C53.0841 0 47.0176 5.44438 45.9999 12.5H28.9999C27.9827 5.44438 21.9157 0 14.5832 0C6.54281 0 -0.000109439 6.54292 -0.000109439 14.5833C-0.000109439 22.6238 6.54281 29.1667 14.5832 29.1667C21.9156 29.1667 27.9822 23.7223 28.9999 16.6667H45.9999C47.0172 23.7223 53.0841 29.1667 60.4166 29.1667C67.7491 29.1667 73.8156 23.7223 74.8333 16.6667H80.2085C88.8266 16.6667 95.8335 23.6736 95.8335 32.2917C95.8335 40.9098 88.8266 47.9167 80.2085 47.9167H50.8626L55.6396 43.1397L52.6937 40.1936ZM85.4166 74.9999C91.1621 74.9999 95.8333 79.6711 95.8333 85.4165C95.8333 91.162 91.1621 95.8332 85.4166 95.8332C79.6712 95.8332 75 91.162 75 85.4165C75 79.6711 79.6712 74.9999 85.4166 74.9999ZM39.5833 74.9999C45.3287 74.9999 49.9999 79.6711 49.9999 85.4165C49.9999 91.162 45.3287 95.8332 39.5833 95.8332C33.8378 95.8332 29.1666 91.162 29.1666 85.4165C29.1666 79.6711 33.8378 74.9999 39.5833 74.9999ZM14.5832 24.9998C8.83782 24.9998 4.16656 20.3286 4.16656 14.5831C4.16656 8.83772 8.83782 4.16646 14.5832 4.16646C20.3287 4.16646 24.9999 8.83772 24.9999 14.5831C24.9999 20.3286 20.3287 24.9998 14.5832 24.9998ZM60.4166 24.9998C54.6712 24.9998 49.9999 20.3286 49.9999 14.5831C49.9999 8.83772 54.6712 4.16646 60.4166 4.16646C66.162 4.16646 70.8333 8.83772 70.8333 14.5831C70.8333 20.3286 66.162 24.9998 60.4166 24.9998Z" fill="#E200B0"/>
</svg>
